<svg width="41" height="38" viewBox="0 0 41 38" fill="none" xmlns="http://www.w3.org/2000/svg">
<path d="M28.612 15.936C28.9321 16.2165 28.038 16.2842 27.4669 14.6283C26.6533 12.2692 28.165 11.4853 26.0341 9.25061C23.9031 7.01588 17.0117 4.93747 16.3366 5.01777C17.3546 4.33575 21.2223 4.64878 21.2223 4.64878C21.2223 4.64878 24.0792 4.89506 26.2129 5.49703C28.3467 6.09899 34.5719 10.0257 34.2903 13.0041C34.6351 14.7893 32.0557 18.7004 28.612 15.936Z" fill="#00B074" stroke="#00B074" stroke-width="0.415056"/>
<path d="M32.7897 15.3189C33.0904 14.7565 33.271 14.143 33.3211 13.5133C33.3712 12.8835 33.2898 12.25 33.0817 11.6488C32.8735 11.0476 32.5426 10.4905 32.1079 10.0094C31.6732 9.52821 31.1431 9.13241 30.548 8.84456L30.3877 9.14432C30.9412 9.41203 31.4341 9.78012 31.8384 10.2276C32.2427 10.6751 32.5504 11.1931 32.744 11.7523C32.9376 12.3114 33.0133 12.9006 32.9667 13.4862C32.9201 14.0718 32.7522 14.6425 32.4725 15.1655L32.7897 15.3189Z" fill="#FFFFFB"/>
<path d="M11.8445 21.982C11.5277 21.6981 12.4226 21.6399 12.974 23.3019C13.7594 25.6695 12.2385 26.4372 14.3427 28.6946C16.4469 30.952 23.3131 33.1041 23.9891 33.031C22.963 33.7021 19.0994 33.3477 19.0994 33.3477C19.0994 33.3477 16.2456 33.0709 14.1192 32.4461C11.9927 31.8213 5.81469 27.8282 6.13171 24.853C5.80816 23.0642 8.4339 19.1809 11.8445 21.982Z" fill="#00B074" stroke="#00B074" stroke-width="0.415056"/>
<path d="M7.65906 22.5543C7.35167 23.1134 7.16382 23.725 7.10624 24.3541C7.04866 24.9833 7.12247 25.6177 7.32347 26.2211C7.52446 26.8245 7.8487 27.385 8.27767 27.8708C8.70664 28.3566 9.23194 28.7581 9.82357 29.0523L9.98743 28.7542C9.4372 28.4806 8.94867 28.1073 8.54973 27.6555C8.15079 27.2037 7.84925 26.6824 7.66233 26.1212C7.4754 25.5601 7.40676 24.9701 7.46031 24.385C7.51386 23.7999 7.68856 23.2311 7.97443 22.7111L7.65906 22.5543Z" fill="#FFFFFB"/>
<path d="M23.2876 27.151C22.9947 27.4577 22.9152 26.6105 24.656 26.0506C27.136 25.2528 27.9761 26.6778 30.3131 24.6321C32.6501 22.5865 34.7795 16.0279 34.6888 15.3886C35.417 16.3465 35.1218 20.0179 35.1218 20.0179C35.1218 20.0179 34.8878 22.7299 34.2723 24.7602C33.6568 26.7904 29.5727 32.7377 26.43 32.5036C24.5508 32.8504 20.4039 30.4475 23.2876 27.151Z" fill="#00B074" stroke="#00B074" stroke-width="0.415056"/>
<path d="M23.9673 30.7407C24.5629 31.0196 25.2114 31.1841 25.8758 31.2246C26.5402 31.2651 27.2075 31.1809 27.8395 30.9769C28.4715 30.7728 29.0559 30.4528 29.5593 30.0352C30.0627 29.6176 30.4752 29.1105 30.7733 28.543L30.4558 28.3943C30.1786 28.9221 29.7949 29.3937 29.3267 29.7821C28.8586 30.1704 28.3151 30.468 27.7274 30.6578C27.1396 30.8476 26.5191 30.9259 25.9012 30.8882C25.2833 30.8505 24.6801 30.6976 24.1262 30.4381L23.9673 30.7407Z" fill="#FFFFFB"/>
<path d="M16.8421 10.9849C17.1386 10.6813 17.208 11.5293 15.4607 12.0706C12.9714 12.8418 12.1483 11.4078 9.78716 13.4284C7.42597 15.449 5.21876 21.9844 5.30189 22.6247C4.58509 21.659 4.92397 17.991 4.92397 17.991C4.92397 17.991 5.19017 15.2816 5.82976 13.258C6.46935 11.2345 10.6239 5.33125 13.7637 5.59893C15.6468 5.27226 19.7648 7.71935 16.8421 10.9849Z" fill="#00B074" stroke="#00B074" stroke-width="0.415056"/>
<path d="M16.2009 7.02294C15.6086 6.73762 14.962 6.56625 14.2982 6.51862C13.6343 6.47098 12.9661 6.54801 12.3317 6.74531C11.6974 6.94261 11.1092 7.25631 10.6009 7.66851C10.0926 8.08071 9.67402 8.58333 9.36915 9.14767L9.68486 9.29976C9.96839 8.77492 10.3576 8.30748 10.8304 7.92414C11.3031 7.5408 11.8501 7.24905 12.4401 7.06556C13.03 6.88207 13.6515 6.81043 14.2689 6.85474C14.8863 6.89904 15.4875 7.05841 16.0383 7.32376L16.2009 7.02294Z" fill="#FFFFFB"/>
<path d="M36.2407 27.4885C37.3299 28.3736 37.4543 29.9274 36.522 30.9591C35.5897 31.9907 33.9513 32.1121 32.8621 31.227C31.7732 30.3418 31.6494 28.7886 32.5816 27.757C33.5138 26.7255 35.1514 26.6037 36.2407 27.4885Z" fill="#00B074" stroke="#00B074" stroke-width="0.415056"/>
<path d="M35.0882 27.402C34.5888 27.3257 34.0776 27.4001 33.6209 27.6157C33.1642 27.8312 32.783 28.1779 32.5267 28.6109L32.853 28.8013C33.0708 28.4333 33.3949 28.1386 33.783 27.9554C34.1712 27.7721 34.6057 27.7089 35.0303 27.7737L35.0882 27.402Z" fill="#D65768"/>
<path d="M36.186 5.5914C37.2752 6.47653 37.3996 8.03033 36.4673 9.06196C35.535 10.0936 33.8967 10.215 32.8074 9.32988C31.7185 8.44471 31.5947 6.89146 32.5269 5.85993C33.4591 4.82841 35.0967 4.70656 36.186 5.5914Z" fill="#00B074" stroke="#00B074" stroke-width="0.415056"/>
<path d="M35.0335 5.50475C34.5341 5.42847 34.0229 5.50292 33.5662 5.71847C33.1095 5.93402 32.7283 6.28073 32.472 6.71371L32.7983 6.90409C33.0162 6.53606 33.3402 6.24136 33.7284 6.05814C34.1166 5.87493 34.5511 5.81164 34.9756 5.87648L35.0335 5.50475Z" fill="#D65768"/>
<path d="M10.0649 29.8869C11.1541 30.7721 11.2785 32.3259 10.3462 33.3575C9.41389 34.3891 7.77557 34.5105 6.68633 33.6254C5.5974 32.7402 5.47358 31.187 6.40578 30.1555C7.338 29.1239 8.97565 29.0021 10.0649 29.8869Z" fill="#00B074" stroke="#00B074" stroke-width="0.415056"/>
<path d="M8.91243 29.8003C8.41297 29.724 7.9018 29.7985 7.4451 30.014C6.9884 30.2295 6.60721 30.5763 6.35089 31.0092L6.67719 31.1996C6.89506 30.8316 7.21907 30.5369 7.60727 30.3537C7.99546 30.1705 8.42996 30.1072 8.8545 30.172L8.91243 29.8003Z" fill="#D65768"/>
<path d="M7.34028 6.69723C8.42953 7.58236 8.55391 9.13616 7.6216 10.1678C6.68928 11.1994 5.05096 11.3208 3.96172 10.4357C2.87279 9.55054 2.74897 7.9973 3.68117 6.96577C4.61339 5.93424 6.25104 5.8124 7.34028 6.69723Z" fill="#00B074" stroke="#00B074" stroke-width="0.415056"/>
<path d="M6.18782 6.61059C5.68836 6.53431 5.17719 6.60876 4.72049 6.8243C4.26379 7.03985 3.8826 7.38656 3.62628 7.81954L3.95258 8.00993C4.17045 7.64189 4.49446 7.34719 4.88266 7.16398C5.27085 6.98076 5.70535 6.91748 6.12989 6.98232L6.18782 6.61059Z" fill="#D65768"/>
</svg>
